<svg xmlns:dc="http://purl.org/dc/elements/1.1/" xmlns:cc="http://creativecommons.org/ns#" xmlns:rdf="http://www.w3.org/1999/02/22-rdf-syntax-ns#" xmlns:svg="http://www.w3.org/2000/svg" xmlns="http://www.w3.org/2000/svg" xmlns:sodipodi="http://sodipodi.sourceforge.net/DTD/sodipodi-0.dtd" xmlns:inkscape="http://www.inkscape.org/namespaces/inkscape" viewBox="0 0 32 32.000001" version="1.1" x="0px" y="0px"><g transform="translate(0,-1020.3622)"><path style="color:#054681;font-style:normal;font-variant:normal;font-weight:normal;font-stretch:normal;font-size:medium;line-height:normal;font-family:sans-serif;text-indent:0;text-align:start;text-decoration:none;text-decoration-line:none;text-decoration-style:solid;text-decoration-color:#054681;letter-spacing:normal;word-spacing:normal;text-transform:none;direction:ltr;block-progression:tb;writing-mode:lr-tb;baseline-shift:baseline;text-anchor:start;white-space:normal;clip-rule:nonzero;display:inline;overflow:visible;visibility:visible;opacity:1;isolation:auto;mix-blend-mode:normal;color-interpolation:sRGB;color-interpolation-filters:linearRGB;solid-color:#054681;solid-opacity:1;fill:#054681;fill-opacity:1;fill-rule:nonzero;stroke:none;stroke-width:0.26458332;stroke-linecap:round;stroke-linejoin:round;stroke-miterlimit:4;stroke-dasharray:none;stroke-dashoffset:0;stroke-opacity:1;color-rendering:auto;image-rendering:auto;shape-rendering:auto;text-rendering:auto;enable-background:accumulate" d="m 15.189618,1024.3618 0,0 c 1.226265,0.026 2.758883,0.5221 4.088954,1.0254 1.753771,0.6636 2.915049,2.6704 2.811891,4.5104 l -0.07418,1.4103 0.443264,-0.01 c 1.390379,-0.019 2.53851,1.1133 2.53851,2.5043 l 0,0.3242 c 0,0.6665 -0.272081,1.309 -0.751787,1.7717 l -1.993708,1.9202 0,0.043 c 0,1.8619 -1.137463,3.4629 -2.753313,4.145 l 0,3.0981 -1.003683,0 0,-2.7445 -0.73812,0 -3.057937,0 1.146241,1.1525 a 0.49994161,0.50011454 0 0 1 0,0.7091 l -1.638325,1.6388 1.497726,1.5061 2.288564,0 c 0.281899,-2e-4 0.501851,-0.2199 0.501851,-0.5019 l 0,-0.258 1.003683,0 0,0.256 c 4e-5,0.8226 -0.683172,1.4982 -1.505534,1.4982 l -6.996524,0 c -0.822322,0 -1.4977657,-0.6756 -1.4977257,-1.4982 l 0,-2.1565 0.9958747,0 0,2.1585 c 0,0.282 0.219922,0.5017 0.501851,0.5019 l 3.300065,0 -1.144282,-1.1524 a 0.49994161,0.50011454 0 0 1 0,-0.7013 l 1.630506,-1.6467 -1.491866,-1.5061 -1.792582,0 -1.003692,0 0,0.8439 -0.9958747,0 0,-1.3361 c -1.4751704,-0.7368 -2.501408,-2.2459 -2.501408,-4.0042 l 0,-7.8545 c 0,-1.9155 1.3165247,-3.945 3.1575157,-4.5709 1.612261,-0.5482 3.547422,-1.1056 5.026251,-1.0763 a 0.49994161,0.50011454 0 0 1 0.008,0 z m -0.02149,1.0079 -0.002,0 c -1.193362,-0.023 -3.117495,0.4843 -4.686485,1.0177 -1.3142353,0.4469 -2.4779832,2.2065 -2.4779832,3.6255 l 0,7.8545 c 0,1.9392 1.5587823,3.5004 3.4972922,3.5004 l 6.258414,0 c 1.93855,0 3.499242,-1.5612 3.499242,-3.5004 l 0,-0.2578 a 0.49994161,0.50011454 0 0 1 0.154257,-0.3614 l 2.140166,-2.0666 c 0.284538,-0.2745 0.443264,-0.6536 0.443264,-1.0491 l 0,-0.3242 c 0,-0.8461 -0.675414,-1.5164 -1.521161,-1.506 l -4.75287,0.059 c -0.431186,0 -0.841807,0.1478 -1.136474,0.4141 -0.284538,0.2571 -0.353443,0.5763 -0.353443,0.8928 l 0,1.5275 c 0,0.3997 0.156816,0.7832 0.435456,1.0411 0.293606,0.2718 0.655608,0.3477 0.988066,0.3477 l 0.531134,0 c 0.400354,0 0.789619,-0.1497 1.077887,-0.4277 0.167414,-0.1614 0.501851,-0.4884 0.501851,-0.4884 a 0.50133762,0.50151103 0 1 1 0.69321,0.7247 c 0,0 -0.334418,0.3167 -0.501851,0.4786 -0.474268,0.4573 -1.112089,0.7169 -1.771097,0.7169 l -0.531134,0 c -0.502162,0 -1.142933,-0.1354 -1.667609,-0.6212 -0.455372,-0.4217 -0.700768,-1.0018 -0.742029,-1.6017 l -3.915162,0 c -0.662517,10e-5 -1.29412,-0.2629 -1.7632881,-0.7306 l -0.4139803,-0.4064 a 0.49994161,0.50011454 0 0 1 0.3612518,-0.8633 l 0.002,0 a 0.49994161,0.50011454 0 0 1 0.3378268,0.1542 l 0.4139703,0.4064 c 0.281889,0.2812 0.663996,0.4434 1.06227,0.4434 l 3.897595,0 0,-0.7012 c 0,-0.4909 0.144739,-1.1422 0.685392,-1.6312 0.501891,-0.4537 1.15192,-0.6639 1.794531,-0.6718 l 3.305924,-0.045 0.08008,-1.4767 c 0.07518,-1.3416 -0.944765,-3.0508 -2.16945,-3.5142 -1.287211,-0.4871 -2.799003,-0.9388 -3.755046,-0.9591 z"></path></g></svg>