<svg xmlns="http://www.w3.org/2000/svg" xmlns:xlink="http://www.w3.org/1999/xlink" version="1.1" x="0px" y="0px" viewBox="0 0 100 100" style="enable-background:new 0 0 100 100;" xml:space="preserve"><style type="text/css">
	.st0{fill:#B20036; stroke: 5;}
</style><path class="st0" d="M84.6,54.9l-33.1,34c0,0,0,0,0,0L50,90.4L31.7,71.6c-0.8-0.8-0.8-2.1,0-2.8c0.8-0.8,2.1-0.8,2.8,0L50,84.6l31.7-32.5  c0,0,0,0,0,0c8.4-8.6,8.4-22.6,0-31.2c-4-4.1-9.4-6.4-15.1-6.4c-5.7,0-11.1,2.3-15.1,6.4L50,22.4l-1.4-1.5c-4-4.1-9.4-6.4-15.1-6.4  c-5.7,0-11.1,2.3-15.1,6.4c-8.4,8.6-8.4,22.6,0,31.2c0.8,0.8,0.8,2.1,0,2.8c-0.8,0.8-2.1,0.8-2.8,0c-9.9-10.1-9.9-26.6,0-36.8  c4.8-4.9,11.2-7.6,18-7.6c0,0,0,0,0,0c6.1,0,12,2.2,16.6,6.3c4.6-4.1,10.4-6.3,16.6-6.3c6.8,0,13.2,2.7,18,7.6  C94.5,28.3,94.5,44.8,84.6,54.9z M34.7,63.6c1.1,0,2-0.9,2-2s-0.9-2-2-2h-8v-8c0-1.1-0.9-2-2-2s-2,0.9-2,2v8h-8c-1.1,0-2,0.9-2,2  s0.9,2,2,2h8v8c0,1.1,0.9,2,2,2s2-0.9,2-2v-8H34.7z"></path></svg>