<svg xmlns="http://www.w3.org/2000/svg" xmlns:xlink="http://www.w3.org/1999/xlink" version="1.1" x="0px" y="0px" viewBox="0 0 100 100" enable-background="new 0 0 100 100" xml:space="preserve"><g><path fill="#054681" d="M98,76.199C98,63.58,90.679,50,74.601,50c-5.56,0-17.653-4.178-20.95-12.162c-2.094-5.082-1.893-15.952-1.73-24.686   c0.041-2.209,0.081-4.297,0.081-6.152c0-3.229-2.567-7-9.801-7c-6,0-14.186,2.271-15.884,7.265C18.532,7.854,7.8,12.48,7.8,23.6   V40.4c0,5.39-0.832,9.207-1.712,13.248C5.062,58.357,4,63.227,4,71c0,2.573,1.28,5.737,4,8.011v0.257C4.33,81.22,2,84.915,2,89   c0,6.065,4.935,11,11,11c5.728,0,10.441-4.401,10.949-9.999h2.102C26.559,95.599,31.272,100,37,100s10.441-4.401,10.949-9.999   h2.102C50.559,95.599,55.272,100,61,100c5.727,0,10.441-4.401,10.949-9.999h2.102C74.559,95.599,79.272,100,85,100   c6.064,0,11.001-4.935,11.001-11c0-3.24-1.469-6.241-3.899-8.361C95.812,79.377,98,77.848,98,76.199z M86,82.212v1.789   C86,85.104,85.104,86,84.001,86H14c-1.103,0-2-0.896-2-1.999v-2.789C13.458,81.704,15.113,82,17,82   c7.523,0,14.824,0.465,22.554,0.955c8.085,0.514,16.444,1.046,25.446,1.046C72.971,84.001,80.291,83.328,86,82.212z M13,96.001   c-3.925,0-7-3.074-7-7.001c0-1.827,0.749-3.536,2.017-4.832c0.049,1.723,0.829,3.253,2.039,4.317C10.023,88.654,10,88.825,10,89   c0,1.601,1.399,3,3,3c1.252,0,2.371-0.86,2.804-1.999h4.099C19.427,93.431,16.581,96.001,13,96.001z M37,96.001   c-3.58,0-6.427-2.57-6.901-6h4.099C34.63,91.14,35.748,92,37,92s2.371-0.86,2.804-1.999h4.098   C43.427,93.431,40.582,96.001,37,96.001z M61,96.001c-3.582,0-6.427-2.57-6.902-6h4.1C58.63,91.14,59.748,92,61,92   s2.371-0.86,2.804-1.999h4.099C67.427,93.431,64.582,96.001,61,96.001z M85,96.001c-3.582,0-6.427-2.57-6.901-6h4.099   C82.63,91.14,83.748,92,85,92c1.601,0,3-1.399,3-3c0-0.175-0.023-0.346-0.056-0.515c1.223-1.075,2.011-2.625,2.044-4.368   C91.258,85.443,92,87.169,92,89C92,92.927,88.926,96.001,85,96.001z M65,80c-8.874,0-17.17-0.526-25.193-1.037   C32.013,78.47,24.65,78.001,17,78.001c-6.557,0-9-4.293-9-7.001c0-7.344,1.015-11.998,1.996-16.5   c0.928-4.258,1.804-8.278,1.804-14.1V23.6C11.8,13.479,23.797,11.2,28,11.2c1.104,0,2-0.896,2-2C30,6.319,36.674,4,42.2,4   C45.777,4,48,5.149,48,7c0,1.833-0.037,3.895-0.079,6.078c-0.057,3.067-0.115,6.263-0.09,9.385C47.28,22.177,46.664,22,46,22   c-2.209,0-4,1.79-4,4s1.791,4,4,4c0.763,0,1.468-0.224,2.073-0.594c0.174,2.458,0.462,4.737,0.907,6.729   C48.665,36.056,48.341,36,48,36c-2.21,0-4,1.791-4,4c0,2.21,1.79,4,4,4c1.451,0,2.709-0.778,3.41-1.933   c0.98,1.515,2.173,2.883,3.526,4.094c-1.69,0.468-2.936,2-2.936,3.839c0,2.209,1.789,4,3.999,4c2.211,0,3.999-1.791,3.999-4   c0-0.101-0.021-0.197-0.029-0.297c1.528,0.852,3.104,1.565,4.662,2.155C64.236,52.479,64,53.21,64,54c0,2.21,1.789,4,4,4   s4-1.79,4-4c0-0.069-0.017-0.134-0.021-0.202C72.947,53.933,73.833,54,74.601,54c13.106,0,19.132,10.666,19.392,21.472   C92.137,76.625,83.654,80,65,80z"></path></g></svg>