<?xml version="1.0" encoding="utf-8"?>
<!-- Generator: Adobe Illustrator 18.1.1, SVG Export Plug-In . SVG Version: 6.00 Build 0)  -->
<svg version="1.1" id="Layer_1" xmlns:sketch="http://www.bohemiancoding.com/sketch/ns"
	 xmlns="http://www.w3.org/2000/svg" xmlns:xlink="http://www.w3.org/1999/xlink" x="0px" y="0px" viewBox="242 -89 500 195"
	 enable-background="new 242 -89 500 195" xml:space="preserve">
<title>npm-logo</title>
<description>Created with Sketch (http://www.bohemiancoding.com/sketch)</description>
<polygon fill="#FFFFFF" points="242,-89 742,-89 742,79 492,79 492,106 381,106 381,79 242,79 "/>
<polygon fill="#00d484" points="270.3,49.5 325.5,49.5 325.5,-34.4 353.3,-34.4 353.3,49.5 380.8,49.5 380.8,-61.5 270.3,-61.5 "/>
<path fill="#00d484" d="M463-34h29v57h-29V-34z M408.3-62l0.3,140h55V50.1h55.7V-62H408.3z"/>
<polygon fill="#00d484" points="547.3,-62 547.3,49 602.7,49 602.7,-34.3 630.3,-34.3 630.3,49 658,49 658,-34 685.7,-34 685.7,49 
	713.3,49 713.3,-62 "/>
</svg>
